# xmcd
#
# Track frame offsets:
#	150
#	12857
#	25732
#	40043
#	52505
#	64243
#	79987
#	81969
#	92419
#	107316
#	117044
#	128435
#	141541
#
# Disc length: 1983 seconds
#
# Revision: 1
# Processed by: cddbd v1.5PL3 Copyright (c) Steve Scherf et al.
# Submitted via: audiograbber 1.82.02
#
DISCID=9207bd0d
DTITLE=Bojtorján - Csavargódal 1980
DYEAR=1980
DGENRE=Country
TTITLE0=Ahol a  lista folyó ....
TTITLE1=Vigyázz magadra fiam
TTITLE2=Tizenhat éves
TTITLE3=Budapesttõl Miskolcig
TTITLE4=Mint suttogás a szélben
TTITLE5=Csavargódal
TTITLE6=Az iskolamester
TTITLE7=Énekelsz egy régi nótát
TTITLE8=Úgy szeretném
TTITLE9=Mondj el mindent
TTITLE10=Az utcán
TTITLE11=Ha egy napon hazamegyek
TTITLE12=Búcsúzó
EXTD=
EXTT0=
EXTT1=
EXTT2=
EXTT3=
EXTT4=
EXTT5=
EXTT6=
EXTT7=
EXTT8=
EXTT9=
EXTT10=
EXTT11=
EXTT12=
PLAYORDER=
